<?xml version="1.0" encoding="UTF-8"?>
<!-- Created with Inkscape (http://www.inkscape.org/) -->
<svg width="1280" height="768" version="1.1" viewBox="0 0 338.67 203.2" xmlns="http://www.w3.org/2000/svg" xmlns:cc="http://creativecommons.org/ns#" xmlns:dc="http://purl.org/dc/elements/1.1/" xmlns:rdf="http://www.w3.org/1999/02/22-rdf-syntax-ns#" xmlns:xlink="http://www.w3.org/1999/xlink">
 <title>成语在线&amp;琨</title>
 <defs>
  <radialGradient id="radialGradient877" cx="147.53" cy="215.75" r="2.5" gradientTransform="matrix(1 0 0 36.99 21.801 -7785.2)" gradientUnits="userSpaceOnUse">
   <stop offset="0"/>
   <stop stop-opacity="0" offset="1"/>
  </radialGradient>
 </defs>
 <metadata>
  <rdf:RDF>
   <cc:Work rdf:about="">
    <dc:format>image/svg+xml</dc:format>
    <dc:type rdf:resource="http://purl.org/dc/dcmitype/StillImage"/>
    <dc:title>成语在线&amp;琨</dc:title>
   </cc:Work>
  </rdf:RDF>
 </metadata>
 <g transform="translate(0 -93.8)">
  <path d="m169.33 102.92v184.95" fill="none" stroke="url(#radialGradient877)" stroke-width="1.3229"/>
  <g transform="translate(203.2 -33.867)">
   <rect x="3.5604e-6" y="161.53" width="135.47" height="135.47" fill="#1e90ff"/>
   <g transform="matrix(.26458 0 0 .26458 -49.828 141.76)" fill="#fff" aria-label="琨">
    <path d="m589.48 171.52h-125.95v-16.384h125.95zm0 69.632h-125.95v-16.896h125.95zm70.656-143.36h-263.68v200.7h263.68zm-282.11 308.74-43.008 10.752v-94.208h39.424v-68.096h-39.424v-82.944h43.008v-68.608h-171.01v68.608h51.2v82.944h-43.52v68.096h43.52v112.64c-22.528 5.12-43.008 9.728-60.416 13.312l13.824 70.656c51.2-13.312 116.22-29.696 175.62-46.08zm84.992 72.192v-59.392h57.856v-61.952h-57.856v-46.592h-71.168v149.5c0 19.456-12.8 27.648-25.088 32.768 10.752 17.408 20.992 51.712 24.064 70.656 13.312-7.168 34.304-12.8 134.66-29.184-3.072-15.872-6.656-43.52-7.68-62.976zm143.87 16.384c-6.656 0-7.168-2.048-7.168-19.456v-45.056c28.16-11.264 59.904-24.576 89.088-39.936l-45.056-53.76c-11.776 9.728-27.648 20.992-44.032 30.72v-56.32h-69.12v164.86c0 59.904 11.264 80.384 63.488 80.384h33.792c39.936 0 56.832-20.48 62.976-89.6-18.432-4.096-46.592-15.36-59.904-26.112-1.024 45.568-3.072 54.272-10.752 54.272z" fill="#fff"/>
   </g>
  </g>
  <g transform="translate(-3.5604e-6 127.67)">
   <g transform="translate(0 -161.53)" fill="#800000">
    <rect x="14.68" y="176.21" width="106.11" height="106.11" fill="none"/>
   </g>
   <g>
    <g transform="matrix(.26458 0 0 .26458 -28.778 -39.095)" aria-label="成">
     <path d="m231.63 208.23q3.9062-6.8359 11.719-4.2969 8.9844 5.8594 8.0078 14.844 0 9.5703 0.97656 14.453 2.5391 2.7344 6.8359 1.5625 3.5156-0.97656 7.8125-0.39063 7.8125-0.39062 10.352 9.375-0.58593 6.6406-5.8594 8.5938l-7.8125 2.9297q-10.742 1.1719-6.4453 11.719 2.3438 11.719 6.0547 23.438 0.97657 7.0312 5.0781 6.25 0.78125-0.58594 1.7578-6.4453 2.7344-16.211 6.4453-23.828 4.2969-6.0547 5.0781-6.25 5.4688 1.9531 9.375 10.938 1.9531 6.6406-0.58594 15.625-3.125 14.062-9.375 31.25-3.5156 6.25-1.5625 11.719 4.6875 11.328 16.602 23.438 8.0078 11.914 14.453 5.2734 3.5156-6.8359 4.6875-13.672 1.3672-5.4688 1.7578 0.39062 1.3672 14.648 7.4219 21.484 7.8125 6.25 0.97656 11.133l-7.8125 5.0781q-5.0781 2.9297-11.719-0.19531-18.359-6.4453-35.156-32.227-4.4922-8.3984-11.914 0.39062-14.648 11.523-29.883 16.992-5.8594 1.7578-2.9297-4.1016 7.2266-9.1797 24.023-23.633 8.3984-8.2031 6.6406-15.625-10.547-26.172-16.992-54.688-1.1719-9.7656-9.375-6.0547-19.336 5.2734-30.078 6.6406-4.4922 1.3672-4.2969 6.6406l-0.58594 7.8125q-0.19531 7.0312 6.0547 4.1016 2.9297-1.1719 6.4453-1.5625 4.2969 0.19531 7.8125-1.7578 7.6172-5.8594 15.234 2.5391 3.125 5.6641 1.7578 20.898-0.78125 12.891-7.6172 31.25-1.9531 6.0547-10.156 6.8359-1.9531 0.39062-3.9062 1.5625-9.7656 7.8125-12.305-3.9062l-0.97657-2.1484q-3.9062-6.25 1.5625-5.0781 9.9609 3.125 13.086-10.156 4.4922-15.43 3.7109-30.664-0.97656-2.1484-5.0781-0.19531-2.1484 1.9531-5.0781 3.9062-5.8594 3.7109-11.719 6.6406-2.3438 2.3438-3.125 7.8125-3.125 15.625-10.938 31.25-3.3203 6.4453-9.5703 11.328-6.0547 3.125-6.25 2.3438 3.9062-16.016 8.3984-32.227 7.6172-30.273 5.2734-62.891-0.58594-9.9609 3.7109-18.945 4.4922-3.7109 9.9609 1.3672 4.2969 3.7109 10.156 3.125l25.391-6.0547q4.1016-0.58594 5.8594-4.2969-0.58594-8.3984-1.9531-16.797-1.3672-10.938 0.58594-14.844zm53.32 6.0547q8.2031-1.3672 16.602 6.0547 8.7891 9.375-1.1719 17.383-7.2266 3.3203-11.914-6.4453-0.58594-3.5156-3.3203-7.8125-2.3438-2.9297-2.5391-5.0781-0.39062-2.5391 2.3438-4.1016z"/>
    </g>
    <g transform="matrix(.26458 0 0 .26458 31.565 20.438)" aria-label="語">
     <path d="m293.94 208.23q8.2031-0.78125 14.062 9.5703 2.7344 7.2266-5.4688 9.7656-1.9531 0.58593-3.9062 2.7344-2.7344 4.4922-12.5 15.43-5.4688 7.0312-3.9062 11.133 7.6172 3.7109 12.305 1.1719 5.2734-5.0781 9.9609 0.19531 7.0312 11.133 2.3438 23.047-2.3438 4.1016 0 6.6406 7.2266-0.58594 14.453-0.58594 6.25-0.19531 11.719 4.2969 5.6641 5.2734 3.7109 12.305-1.3672 3.7109-6.6406 3.7109-47.07-4.8828-91.602 12.109-6.25 2.5391-11.719 1.3672-3.125-0.78125-7.2266-5.4688-3.9062-6.0547 2.5391-11.133 5.4688-4.6875 15.625-6.25l7.8125-1.5625q4.2969-1.9531 5.6641-6.8359 1.3672-3.9062 3.3203-7.8125 3.125-6.6406-5.2734-5.2734-5.0781 0.78125-9.375-3.7109-5.0781-6.4453 4.6875-8.7891 7.8125-2.9297 15.625-5.0781 7.2266-2.9297 9.1797-15.039-0.78125-0.97656-6.6406-0.58594-9.1797 2.5391-18.164-10.547-6.25-11.328 3.9062-11.523 23.438-1.9531 45.508-13.281zm-106.64 4.8828q4.4922-2.1484 9.9609 0.58594 14.648 5.6641 15.43 16.211-1.1719 8.3984 6.25 5.2734 7.2266-2.5391 7.8125-1.1719 1.5625 12.695-14.844 19.922l-15.625 8.3984q-8.5938 4.1016-15.625 9.7656-2.7344 3.5156-7.8125 3.125-8.3984-2.9297-12.695-13.672 0.58594-3.7109 5.2734-5.6641 11.719-5.6641 23.438-9.9609 8.2031-7.0312 4.8828-14.844-0.78125-1.9531-2.5391-3.9062-5.2734-4.8828-5.8594-9.5703-0.97657-2.7344 1.9531-4.4922zm97.266 54.688q-3.9062 0.58594-7.8125 1.7578-6.25 2.5391-8.3984 9.9609l-3.5156 7.8125q-1.7578 1.9531-0.39062 4.6875 4.2969 1.1719 14.844-0.78125 7.4219 0.39063 10.156-6.25 2.1484-5.0781 2.7344-11.719 0.39063-8.9844-7.6172-5.4688zm-99.414 12.5q9.5703-4.8828 19.727-9.1797 5.8594-1.3672 7.2266 0.58594 3.5156 7.2266-6.8359 15.43-2.7344 2.3438-7.8125 4.6875-11.133 5.8594-16.797-5.4688 0.19531-3.9062 4.4922-6.0547zm18.555 16.992q6.25-3.5156 9.5703 0 1.5625 1.5625 0.19532 4.8828-2.1484 6.4453-13.477 13.672-6.25 4.1016-11.719 1.1719-8.7891-4.6875-0.19531-10.156 7.4219-6.0547 15.625-9.5703zm65.82 25.195q18.945-6.8359 33.398-2.5391 7.0312 2.7344 9.375 8.0078 2.1484 7.2266-7.4219 23.242-0.19532 2.1484 1.9531 5.0781 4.8828 7.2266-0.97656 11.328-3.125 3.125-7.8125 0.78125-11.133-2.5391-33.008 4.4922-3.9062 2.3438-5.0781 4.2969-3.125 5.2734-8.3984-2.7344-9.7656-17.188-12.305-31.25-1.5625-9.9609 0.19531-14.258 1.7578-4.6875 6.6406-3.7109 7.0312 3.3203 23.438-2.7344zm-62.891-0.97656q4.4922-2.5391 11.328 5.0781 3.7109 3.9062 1.9531 7.8125t-2.1484 7.8125q-0.39062 2.9297 1.7578 6.6406 0.39063 2.5391-3.125 4.2969-15.625 6.8359-19.336 15.234-0.58594 12.305-13.477-0.19531-18.164-18.555-17.578-30.859 3.3203-8.2031 9.9609-4.4922 5.0781 1.9531 15.625-4.6875 7.2266-3.7109 15.039-6.6406zm79.688 8.7891q-4.2969 2.9297-15.625 5.2734-3.9062 0.97656-7.8125 2.5391-7.6172 2.9297-4.8828 9.9609 0.19531 7.6172 4.4922 9.9609 22.266 1.1719 28.32-26.367 0-3.5156-4.4922-1.3672zm-85.938 3.9062q-16.016 6.4453-10.156 16.211 5.6641 5.8594 11.523-0.58594 7.2266-5.6641 5.2734-13.672-0.97656-4.4922-6.6406-1.9531z"/>
    </g>
   </g>
   <path transform="scale(.26458)" d="m251.08 99.93c-0.58663 8.42e-4 -1.0825 0.01326-1.457 0.03906-0.51563 0.03545-2.2031 0.05632-3.75 0.04687-1.5469-9e-3 -4.6688 0.2339-6.9375 0.54102-2.2688 0.30714-5.5594 0.73774-7.3125 0.95703-3.1795 0.39769-3.772 0.49401-10.5 1.7051-5.9909 1.0784-10.638 2.3251-11.119 2.9824-0.24853 0.33988-0.56677 1.2968-0.70703 2.127-0.2072 1.2264-0.10372 1.6959 0.54687 2.498 1.1836 1.4594 1.923 3.2799 2.166 5.332 0.20416 1.7238 0.15962 1.8436-0.80664 2.2109-0.99693 0.37903-1.016 0.44479-0.8086 2.7285 0.11691 1.2872 0.2064 3.2258 0.19922 4.3086-0.0138 2.0245 0.45909 2.5136 1.4629 1.5098 0.35922-0.3591 0.61803-0.36101 1.1836-8e-3 0.45627 0.28494 0.80601 0.31571 0.94922 0.084 0.12485-0.20206 0.64639-0.36719 1.1582-0.36719 0.5118 0 1.4364-0.37293 2.0547-0.83008 0.91245-0.6746 1.2545-0.75132 1.8164-0.40039 0.83795 0.52331 2.2 0.24124 3.2168-0.66797 1.1204-1.0019 3.8758-1.8396 6.0723-1.8457 1.0706-3e-3 2.0502-0.17461 2.1777-0.38086 0.31087-0.50319 1.9549-0.47904 2.2715 0.0332 0.2966 0.4799 5.022 0.11147 5.584-0.43554 0.19594-0.19072 0.77963-0.34766 1.2969-0.34766 0.57933 0 1.4967-0.53998 2.3887-1.4062l1.4473-1.4062 0.9375 1.0801c0.82702 0.95468 1.0427 1.031 1.8652 0.65625 1.1664-0.53144 2.8734-0.54656 3.3887-0.0312 0.21538 0.21536 2.0981 0.45624 4.1836 0.53515 3.4831 0.13182 3.8089 0.0837 4.0195-0.58007 0.33006-1.0399 2.4248-1.0064 2.6992 0.043 0.19061 0.72889 0.23429 0.73396 0.91797 0.11524 0.66287-0.59989 0.79574-0.60375 1.7344-0.0508 1.3889 0.81821 4.3075 1.2161 5.2441 0.71484 0.57392-0.30716 1.051-0.25254 2.0117 0.22852 0.75578 0.37843 2.2344 0.64491 3.6973 0.66797 2.2663 0.0357 3.9994 0.56769 4.5391 1.3926 0.12473 0.19061 1.3504 0.3534 2.7227 0.36133 1.7872 0.0103 2.7337 0.2005 3.3359 0.66992 0.75744 0.5904 1.4911 0.80557 4.3418 1.2715 0.48193 0.0788 1.3777 0.69245 1.9922 1.3652 0.83285 0.91184 1.226 1.1158 1.543 0.79883 0.66054-0.66055 1.7077-0.50294 2.1504 0.32422 0.22076 0.41249 0.69849 0.75 1.0625 0.75 0.36399 0 0.86885 0.20674 1.1211 0.45898 0.25223 0.25221 1.0098 0.41157 1.6836 0.35352 0.97492-0.084 1.759 0.28497 3.8359 1.8125 2.1395 1.5735 2.8171 1.8889 3.7656 1.7441 1.4102-0.21516 1.8731 0.0418 2.3555 1.3106 0.29905 0.78649 0.55906 0.94075 1.332 0.79297 0.65885-0.12595 1.032 6e-3 1.1914 0.42187 0.12776 0.33293 0.6373 0.60547 1.1309 0.60547 0.49355 0 0.91034 0.21095 0.92773 0.46875 0.0555 0.82037 2.856 2.9285 4.916 3.7012 1.3612 0.51054 2.4936 0.68265 3.584 0.54492 1.6993-0.21465 2.156 0.351 1.0352 1.2812-0.83824 0.69569-0.25198 1.2372 1.1016 1.0176 1.0802-0.17528 1.2299-0.0811 1.5449 0.9668 0.33235 1.1056 1.4278 2.0067 3.5371 2.9102 0.51563 0.22085 1.7812 1.2091 2.8125 2.1973 1.0312 0.98822 2.8875 2.5668 4.125 3.5059 1.2375 0.93905 2.836 2.3197 3.5527 3.0684 1.0948 1.1435 1.4766 1.3221 2.3828 1.123 1.0472-0.23 1.0716-0.20177 0.81836 0.95117-0.19484 0.88707-0.13418 1.1706 0.24218 1.1191 1.0558-0.14445 1.3938 0.0458 1.5098 0.85351 0.0659 0.4589 0.53867 1.0425 1.0508 1.2969 0.51211 0.25439 1.1212 0.72461 1.3555 1.0449 0.23424 0.32034 0.80206 0.53831 1.2598 0.48438 0.6827-0.0804 0.97542 0.25207 1.6328 1.8457 0.73964 1.793 0.8806 1.9254 1.8359 1.7344 1.0794-0.21587 1.1498-0.1334 1.5879 1.8633 0.12559 0.57243 0.5193 1.3318 0.875 1.6875 0.35568 0.35569 0.64648 0.98099 0.64648 1.3887 0 0.58641 0.40068 0.83015 1.9219 1.168 2.3865 0.52995 2.7656 0.75777 2.7656 1.6738 0 0.474-0.25753 0.72852-0.73828 0.72852-0.8823 0-0.64992 0.9885 0.30469 1.2969 0.34188 0.11044 0.90719 0.66665 1.2559 1.2344 0.34866 0.56772 1.4877 2.2666 2.5312 3.7773 1.0435 1.5108 1.8965 2.8893 1.8965 3.0625 0 0.50391 3.344 2.2316 3.5801 1.8496 0.33217-0.53748 1.3544-0.40895 2.0976 0.26368 1.024 0.92667 0.27863 2.0156-1.3789 2.0156-0.71462 0-1.2988 0.0953-1.2988 0.21289 0 0.36147 2.1496 3.3619 2.7891 3.8926 0.95558 0.79304 1.1256 0.15892 0.25391-0.94922-0.98704-1.2548-1.0064-1.9133-0.0625-2.2129 0.78309-0.24854 2.5921 0.52749 3.3457 1.4356 0.25271 0.30449 0.83616 1.5274 1.2969 2.7168 1.1108 2.8679 1.7719 3.0969 1.3027 0.45118-0.20138-1.1357-0.98191-3.0351-1.8262-4.4434-1.4289-2.3836-1.7766-3.3598-1.1934-3.3477 0.85627 0.0179 9.7543 15.4 10.996 19.01 0.89405 2.5987 2.0005 3.8594 3.3867 3.8594 0.68882 0 1.2888 0.34318 1.8047 1.0312 1.3511 1.8022 1.5462 1.9688 2.2969 1.9688 0.47785 0 0.73438-0.25553 0.73438-0.72852 0-1.2419 0.7027-1.2458 2.2559-0.0156 1.4068 1.1144 1.4941 1.2972 1.4941 3.1836 0 1.6069 0.19155 2.2303 0.9707 3.1562 0.60159 0.71495 1.3225 1.1543 1.8965 1.1543 0.52218 0 0.82608-0.16365 0.69531-0.375-0.12745-0.20625-0.49805-0.375-0.82422-0.375-1.281 0-2.1737-2.4324-1.0508-2.8633 0.30928-0.11872 0.5625-0.52604 0.5625-0.9043s0.15433-0.78248 0.3418-0.89844c0.71108-0.43945 1.5185 0.29265 2.1504 1.9473 0.36007 0.94284 0.71612 1.5337 0.78906 1.3144 0.12189-0.36574-0.75334-3.0263-5.1367-15.629-0.93997-2.7025-1.9699-4.9441-2.6055-5.668-0.60389-0.68779-1.1583-1.8576-1.3008-2.748-0.13633-0.85267-0.81289-2.4365-1.5039-3.5195-0.69102-1.0831-2.489-4.3312-3.9961-7.2188-1.5071-2.8875-3.5122-6.4138-4.457-7.8359-2.3598-3.5518-3.3094-5.0956-3.9394-6.4141-0.29568-0.61875-2.0047-2.8969-3.7988-5.0625s-4.6304-5.625-6.3027-7.6875c-3.3958-4.1881-15.122-15.979-18.119-18.219-1.0674-0.79779-2.0537-1.8101-2.1934-2.25-0.16513-0.52029-1.1262-1.1923-2.748-1.9219-1.3797-0.62068-3.1416-1.7912-3.9473-2.6211-1.1972-1.2334-1.6402-1.463-2.4902-1.293-1.0502 0.21005-2.2422-0.62377-2.2422-1.5684 0-0.24155-0.33939-0.43945-0.75391-0.43945s-1.0433-0.3375-1.3965-0.75c-0.35319-0.41249-0.86987-0.75-1.1504-0.75-0.28051 0-1.3598-0.84375-2.3965-1.875-1.2301-1.2237-2.203-1.875-2.8008-1.875-0.69226 0-1.0484-0.32045-1.4629-1.3125-0.54015-1.2928-0.5837-1.3125-2.7949-1.3125-2.5027 0-3.8476-0.83496-3.498-2.1719 0.13946-0.53328-0.15608-0.94179-1.1035-1.5273-1.4422-0.89132-2.5262-1.0168-3.1758-0.36719-0.53501 0.53501-3.4242-0.45799-5.2227-1.7949-0.65655-0.48807-1.348-0.88867-1.5352-0.88867-0.18718 0-3.3639-1.4124-7.0605-3.1387-6.3143-2.9487-13.473-5.8613-14.406-5.8613-0.22882 0-0.75376-0.17974-1.166-0.40039-0.59856-0.32034-0.66015-0.5092-0.30469-0.9375 0.52702-0.63501-0.0537-0.72946-0.67382-0.10938-0.3208 0.32074-0.98752 0.31891-2.6582-0.01-1.2579-0.24748-4.9033-0.41047-8.3652-0.37305-4.5415 0.0493-6.9651-0.10039-9.3242-0.57812-2.3896-0.4839-10.937-1.043-15.043-1.0371zm141.23 94.195c0.30928 0 0.5625 0.16875 0.5625 0.375s-0.25296 0.375-0.5625 0.375c-0.30928 0-0.5625-0.16875-0.5625-0.375s0.25296-0.375 0.5625-0.375zm1.6289 4.125c0.92485 0 2.9789 4.6906 2.5469 5.8164-0.33921 0.88401-1.3471 0.65035-1.748-0.4043-0.25096-0.65999-0.23116-1.2127 0.0625-1.7617 0.36114-0.67476 0.30222-0.88431-0.375-1.334-0.76947-0.51105-1.1487-2.3164-0.48632-2.3164zm-4.6504 2.0918c0.132 6e-3 0.27964 0.0604 0.42578 0.18164 0.28913 0.23963 0.43332 0.58664 0.32031 0.76953-0.27356 0.44263-0.81274 0.42133-1.0996-0.043-0.30285-0.49003-0.0425-0.92545 0.35352-0.9082zm2.0254 4.6582c0.17378 0 0.61788 0.56221 0.98828 1.25 0.9256 1.7188 0.58948 2.5575-0.48047 1.1973-0.81944-1.0418-1.111-2.4473-0.50781-2.4473zm6.0703 2.25c0.21271 0 0.47879 0.24077 0.5918 0.53516 0.11225 0.29438 0.15006 0.89551 0.082 1.3359-0.0991 0.64339-0.21536 0.70858-0.5918 0.32813-0.56493-0.57061-0.62564-2.1992-0.082-2.1992zm1.4043 3.4668c0.45996 0.0465 0.83398 0.41178 0.83398 0.98047 0 0.79248-0.58069 1.1176-1.5938 0.89257-0.80292-0.17834-0.85058-0.96108-0.0977-1.5859 0.27515-0.22835 0.58145-0.31501 0.85743-0.28711zm3.9805 8.4434-0.61523 0.9375c-0.73587 1.1231-0.4908 2.2678 0.84375 3.9375 0.51564 0.6451 0.99938 1.182 1.0742 1.1934 0.24053 0.0366-0.35981-3.342-0.83984-4.7285zm1.4004 6.6523-0.0234 0.96875c-0.0129 0.53282 0.0996 1.0918 0.25 1.2422 0.444 0.44228 0.5244-0.33005 0.13476-1.3047z" fill="#008080" stroke-width=".375"/>
   <path transform="scale(.26458)" d="m211.53 272.17c-0.43739-0.0369-1.2138 0.13614-2.0644 0.47851-1.7076 0.68726-4.3774 0.79361-20.689 0.82422-14.083 0.0265-19.029-0.11081-19.941-0.55664-0.76898-0.37572-1.4635-0.43605-1.8965-0.16211-0.37573 0.23772-1.6969 0.43568-2.9355 0.43946-1.613 5e-3 -2.52 0.27786-3.1992 0.95703-0.82264 0.82266-1.5804 0.94726-5.7207 0.94726-2.7535 0-5.2111-0.23504-5.8086-0.55664-1.3634-0.7338-4.4083-0.53343-5.8066 0.38282-0.92971 0.60917-2.2535 0.68189-7.9961 0.4414-7.3823-0.30916-15.678 0.27058-20.658 1.4434-1.695 0.39913-4.6829 1.0136-6.6387 1.3652-5.2234 0.93913-11.197 3.1998-12.959 4.9043-0.82586 0.7988-2.3419 1.7306-3.3691 2.0703-1.4056 0.46477-2.3146 1.2621-3.6738 3.2246-0.99332 1.4342-1.8062 2.8581-1.8066 3.1641s-0.54389 1.2021-1.207 1.9902c-1.5221 1.8089-4.7667 8.0211-5.9746 11.439-1.3521 3.8262-1.916 9.0264-1.293 11.932 0.40898 1.9071 0.38785 2.4906-0.10156 2.793-0.72286 0.44674-0.629 5.0909 0.12109 5.9961 0.25973 0.31343 0.34286 0.98069 0.18359 1.4824-0.15927 0.50177-0.33667 3.4467-0.39453 6.543-0.08734 4.6731-0.2766 5.9513-1.1055 7.5273-0.7742 1.472-0.88046 2.0843-0.47656 2.7246 0.38527 0.61073 0.36736 1.0719-0.06836 1.7695-0.78266 1.2533-0.74375 2.6492 0.10938 3.9512 0.46769 0.71381 0.80349 3.0571 1.0195 7.0977 0.2217 4.147 0.52367 6.1978 0.96289 6.5625 0.35135 0.29159 0.63867 1.1262 0.63867 1.8555 0 0.72926 0.37178 1.9934 0.82812 2.8086 0.79021 1.4117 0.79021 1.5054 0 1.959-1.0439 0.59913-1.169 5.4194-0.17774 6.8418 0.35847 0.5144 0.80891 1.8673 1 3.0059 0.51029 3.0401 2.96 5.5552 6.3496 6.5195 1.5382 0.4376 3.2979 1.3571 4.1582 2.1738 1.6916 1.606 6.4092 3.4786 11.311 4.4902 1.8254 0.37674 3.746 0.87693 4.2676 1.1094 3.6468 1.6256 7.7006 2.6236 9.2441 2.2774 0.91269-0.20485 8.7419-0.35289 17.398-0.33399 13.677 0.0322 15.88-0.0618 16.818-0.71875 1.2262-0.85897 3.5472-0.95531 6.3223-0.25976 6.0421 1.5144 32.851 1.993 37.887 0.67578 1.4887-0.38929 2.5855-0.46316 2.8633-0.19141 0.70655 0.6912 2.2604 0.52071 4.0664-0.44726 0.91181-0.48874 2.9906-1.0434 4.6191-1.2324 2.6791-0.31098 2.9308-0.26716 2.6484 0.46875-0.26994 0.70364-0.17469 0.74035 0.70507 0.26953 0.55941-0.29941 1.7842-0.49318 2.7227-0.42968 1.2023 0.081 1.8404-0.12381 2.1602-0.69532 0.68885-1.2309 3.1437-2.3152 4.8984-2.1641 0.86151 0.0742 1.8576-0.10306 2.2129-0.39258 0.66248-0.54039 5.4482-2.6099 7.4609-3.2266 0.777-0.23769 1.0237-0.18037 0.79883 0.18359-0.4803 0.7773 1.0574 1.2003 2.2559 0.6211 0.56912-0.27504 2.8479-1.3486 5.0644-2.3848 2.2165-1.0361 4.6169-2.429 5.334-3.0957 1.4409-1.3398 1.409-1.0005 1.3516-14.059-0.0246-5.6095 0.0451-6.067 1.3203-8.5352h-2e-3c1.905-3.687 1.8431-4.3888-0.53906-6.1406-1.3877-1.0205-2.0533-1.8824-2.1387-2.7676-0.34972-3.6153-0.5085-4.671-0.8086-5.3984-0.63681-1.5439-0.0697-2.9072 1.4062-3.3789 1.9703-0.62974 3.2343-1.791 2.6191-2.4062-0.67646-0.67661-0.59749-8.1435 0.11328-10.725 0.32311-1.1734 0.5492-3.308 0.50196-4.7422-0.23343-7.0768-0.77011-12.289-1.457-14.158-0.70251-1.9169-0.70058-2.0989 0.0371-2.5117 1.2426-0.69547 1.1345-8.304-0.15234-10.705-0.52154-0.97308-0.94726-2.0164-0.94726-2.3184 0-0.82275-1.527-1.2482-1.9707-0.54883-0.28123 0.44337-0.3888 0.37669-0.39258-0.24805-4e-3 -0.47174-0.19882-0.73966-0.43164-0.5957-0.55192 0.3411-0.85166-1.0166-1.252-5.6582-0.2154-2.4972-0.60333-4.1179-1.1348-4.7422-0.44394-0.52154-1.179-1.5453-1.6328-2.2754-0.60933-0.98031-1.0691-1.2498-1.7578-1.0312-1.4885 0.47243-3.5781-0.19885-6.1738-1.9844-1.3269-0.91274-3.4048-1.9331-4.6191-2.2676-1.2144-0.3345-4.3385-1.1772-6.9414-1.873-2.603-0.69581-4.9202-1.4552-5.1504-1.6856-0.0606-0.0606-0.16865-0.0951-0.31445-0.10742zm-131.69 17.387c-0.60429 0.0897-0.99417 0.73476-1.1309 1.8984-0.21094 1.7959 0.9606 1.9472 1.8262 0.23633 0.76054-1.5031 0.75843-1.7398-0.02148-2.0391-0.24775-0.0951-0.4724-0.12559-0.67383-0.0957zm161.46 6.1328c0.0336-1e-3 0.071 9e-3 0.10937 0.0332 0.2609 0.16117 0.47058 1.1864 0.4668 2.2793-5e-3 1.4576-0.12967 1.7971-0.4668 1.2754-0.57582-0.89104-0.61322-3.5692-0.10937-3.5879zm-163.62 0.49219c-0.23467 8e-3 -0.53837 0.17737-0.76562 0.45117-0.61334 0.73904 0.09185 1.4969 0.91797 0.98633 0.58701-0.3628 0.61431-1.0428 0.05469-1.3887-0.05781-0.0357-0.12881-0.0515-0.20703-0.0488zm44.549 3.0625c1.495 0.0828 2.5456 1.3594 3.1543 3.8301 0.0521 1.25-3e-5 2.5781-0.15625 3.9844 0.46875 0.72917 1.3542 0.85937 2.6562 0.39063 3.0208-0.57292 5.1042-0.83334 6.25-0.78125 4.6354 0.31249 6.25 2.5 4.8438 6.5625-0.98958 0.93749-2.0052 1.6406-3.0469 2.1094-2.7083 1.0938-4.7917 1.7708-6.25 2.0312-4.0104 0.98959-8.3073 2.2135-12.891 3.6719-2.0312 2.9167-3.9583 5.9115-5.7812 8.9844-0.41666 0.83333-0.49479 1.875-0.23437 3.125-1.0938 9.3229-1.1198 18.854-0.0781 28.594 0.10417 2.6042-0.59895 4.6875-2.1094 6.25-2.2917 2.2396-3.724 1.875-4.2969-1.0938-1.0417-4.7396-1.4583-11.25-1.25-19.531 0.26042-1.5625 0.0261-2.5-0.70312-2.8125-0.26041 0.0521-1.0417 0.80726-2.3438 2.2656-3.5937 5.3646-6.5365 9.2708-8.8281 11.719l-2.2656 1.7969c-1.5104 0.88542-2.0052 0.54688-1.4844-1.0156 4.1146-8.8021 9.4792-18.958 16.094-30.469 1.0417-1.4063 1.5886-2.5781 1.6406-3.5156-0.26041-0.83333-1.1198-1.1198-2.5781-0.85937-3.0208 0.20832-5.1823-1.1198-6.4844-3.9844-0.83333-3.0729 0.44271-5.3906 3.8281-6.9531 1.3542-0.625 3.4375-1.1198 6.25-1.4844l6.25-1.0938c0.83334-0.10416 1.6667-0.83333 2.5-2.1875 1.4583-3.9062 3.125-6.875 5-8.9062 0.86263-0.45573 1.6349-0.66459 2.3145-0.62695zm85.127 0.1582c0.76823 0 1.543 0.54688 2.3242 1.6406 1.25 1.4583 0.83333 2.9167-1.25 4.375-1.0417 0.83333-1.6667 1.4062-1.875 1.7188-0.10417 0.41666 0.75521 0.59896 2.5781 0.54687 1.9792-0.3125 3.9583-0.54688 5.9375-0.70312 1.7708 0.15624 3.3333-0.31251 4.6875-1.4062 0.78125-0.98959 1.7969-1.224 3.0469-0.70313 2.6562 1.4062 3.8542 3.2292 3.5938 5.4688 0.15624 4.2188-1.0417 8.5417-3.5938 12.969-0.72917 1.0417-1.224 2.0833-1.4844 3.125-1.6667 3.3854-4.4792 5.2083-8.4375 5.4688-2.1875-0.0521-3.125 0.83336-2.8125 2.6562 0.0521 2.3438 1.3541 4.0625 3.9062 5.1562 0.67708 0.10416 1.3542-0.20834 2.0312-0.9375 2.7604-3.5417 5.2344-5.7031 7.4219-6.4844 2.2396-0.15625 3.3594 0.85938 3.3594 3.0469-0.3125 0.72917-1.1458 1.4844-2.5 2.2656l-6.25 2.8906c-2.0312 0.98959-2.1875 2.3958-0.46875 4.2188 3.5938 4.0625 8.776 8.2292 15.547 12.5 1.6146 1.3542 1.5625 1.9271-0.15625 1.7188-2.2396-0.3125-4.6875 0-7.3438 0.9375-1.0938 0-2.1615-0.1823-3.2031-0.54687-2.8646-1.875-5.5208-4.7917-7.9688-8.75-0.83333-1.5104-1.6667-1.9792-2.5-1.4062-0.15624 2.3958-0.20833 4.7917-0.15625 7.1875-0.41666 4.7396-2.9167 8.151-7.5 10.234-2.5521 1.9792-3.9583 1.25-4.2188-2.1875-0.26042-0.57291-0.78125-1.3802-1.5625-2.4219-0.9375-0.72917-0.625-1.0156 0.9375-0.85938 2.8646 0.52083 4.6875-0.72917 5.4688-3.75 0.625-9.6354 0.54687-17.292-0.23437-22.969-0.41667-0.625-0.96355-0.9375-1.6406-0.9375-0.72916 0.20833-1.3021 0.57291-1.7188 1.0938-2.0312 1.3542-3.75 0.85937-5.1562-1.4844-1.8229-5.625-2.9167-11.563-3.2812-17.812-0.20832-2.0313 0.23439-3.8542 1.3281-5.4688 1.0417-1.0417 2.3438-1.3802 3.9062-1.0156 1.3542 0.88542 2.526 0.44271 3.5156-1.3281 1.0417-2.1354 2.1875-4.2708 3.4375-6.4062 0.75521-1.0938 1.5169-1.6406 2.2852-1.6406zm-24.219 2.4414c0.79427 0.0391 1.4388 0.60547 1.9336 1.6992 1.0417 1.9792 0.85938 4.0625-0.54687 6.25-1.5104 2.0833-3.125 4.1667-4.8438 6.25-2.1875 2.5-3.724 4.5833-4.6094 6.25-0.9375 1.875-0.52083 3.3333 1.25 4.375 1.0417 0.72916 2.0052 0.33854 2.8906-1.1719 1.875-3.6979 4.1667-6.4323 6.875-8.2031 0.78125-0.20833 1.4583 0.026 2.0312 0.70312 1.8229 2.6042 0.9375 5.7292-2.6562 9.375-4.2188 4.4792-6.7708 8.0469-7.6562 10.703 0.98959 0.83333 2.3958 0.65104 4.2188-0.54688 1.25-0.9375 1.7448-1.6667 1.4844-2.1875-0.52083-0.72917-0.28645-1.4323 0.70313-2.1094 3.125-0.10417 5.1302 1.7969 6.0156 5.7031 0.26042 2.0312 1.4583 2.7083 3.5938 2.0312 1.0417-0.15625 2.0833-0.41666 3.125-0.78125 1.4583-0.98958 2.7083-1.6406 3.75-1.9531 1.9271 0.31249 2.6302 1.3542 2.1094 3.125-0.57292 1.3542-1.224 3.4375-1.9531 6.25-1.9271 5.5208-6.1198 9.9219-12.578 13.203-2.0312 1.0938-2.5521 0.88542-1.5625-0.625 1.6667-2.0833 3.5156-4.1667 5.5469-6.25 3.0729-3.8021 4.6094-7.0573 4.6094-9.7656-0.9375-1.25-2.2656-1.1198-3.9844 0.39062-1.8229 0.98959-3.125 0.33854-3.9062-1.9531-0.41666-0.46876-0.91145-0.83334-1.4844-1.0938-0.83333-0.78126-1.875-0.91146-3.125-0.39063-3.125 1.5625-6.25 3.3073-9.375 5.2344-1.875 0.98957-3.4375 1.25-4.6875 0.78125-3.0729-1.3021-3.6458-3.125-1.7188-5.4688l4.2188-6.25c1.0938-1.25 1.3542-2.2917 0.78125-3.125-0.52083-0.41667-1.5625-0.83334-3.125-1.25l-3.125-1.0938c-2.1875-0.9375-2.8906-2.5781-2.1094-4.9219 0.46875-1.0417 1.1458-1.5625 2.0312-1.5625 1.25 0.0521 2.1875-0.52086 2.8125-1.7188 2.3438-6.4583 5.7552-12.604 10.234-18.438 1.0938-1.0156 2.0378-1.5039 2.832-1.4648zm34.277 10.371c-1.5625 0.3125-3.125 0.52083-4.6875 0.625-3.4375 0.15625-6.5625 0.85937-9.375 2.1094-1.875 0.98958-2.9167 2.0833-3.125 3.2812-0.052 2.8646 3e-5 5.7292 0.15625 8.5938 0.52084 1.6146 1.6927 2.1094 3.5156 1.4844 7.9688-0.625 12.839-5.1823 14.609-13.672 0.26042-1.0417-0.10417-1.849-1.0938-2.4219zm-5.9512 4.8242c0.56966-0.026 1.0944-0.0195 1.5762 0.0195 1.1458 1.0417 0.93751 2.5-0.625 4.375-2.2396 1.7188-4.349 2.4219-6.3281 2.1094-2.1354-0.26042-3.2031-1.3281-3.2031-3.2031 0.3125-1.4583 1.0677-2.1875 2.2656-2.1875 2.5-0.66406 4.6055-1.0352 6.3144-1.1133zm-81.217 7.9883c0.71615 0.026 1.3867 0.3125 2.0117 0.85938 1.4062 1.4583 2.0833 2.8385 2.0312 4.1406 0.20833 1.3542 0.44271 2.2917 0.70313 2.8125 0.3125 0.26042 1.25 0.23435 2.8125-0.0781 2.3958 0.10416 3.9844 0.96354 4.7656 2.5781 1.0417 2.2917 0.33855 4.2969-2.1094 6.0156-1.25 0.83333-2.8125 1.4583-4.6875 1.875-1.1458-0.10417-1.875 0.625-2.1875 2.1875-0.0521 2.5 3e-5 5.0781 0.15625 7.7344-0.15625 0.57292 0.20834 1.1458 1.0938 1.7188 1.0417 0.20833 3.0208 0.10416 5.9375-0.3125 2.2917-0.41667 4.375-0.28646 6.25 0.39063 2.0833 1.0417 3.2552 2.3958 3.5156 4.0625 0.9375 2.5-0.20833 3.9844-3.4375 4.4531-2.0312 0.26042-4.1406 0.10417-6.3281-0.46875-6.0417-0.46874-13.229 0.625-21.562 3.2812-1.6667 0.78125-3.2292 0.54687-4.6875-0.70312-2.3438-2.0313-2.7083-4.0625-1.0938-6.0938 2.6562-1.9271 5.7552-2.9948 9.2969-3.2031 1.1979 0.15625 2.0833-0.52084 2.6562-2.0312v-5.5469c0.57292-2.2396-0.39062-3.2031-2.8906-2.8906-3.4375 0.72917-5.8333-0.83333-7.1875-4.6875 0.0521-3.125 1.6666-4.5573 4.8438-4.2969l3.125-0.46875c1.0938 0.20832 1.875-0.4948 2.3438-2.1094 0.15624-4.0104 0.93749-6.849 2.3438-8.5156 0.80729-0.4948 1.569-0.72917 2.2852-0.70313zm54.357 20.725c1.2817-0.0399 2.5827 0.57747 3.9043 1.8535 0.83334 1.3021 1.0677 2.7083 0.70313 4.2188-1.6146 1.5625-3.3333 0.83333-5.1562-2.1875-0.41667-0.88542-0.70313-1.7708-0.85938-2.6562-0.052-0.625 0.23441-1.0156 0.85938-1.1719 0.18229-0.0326 0.36572-0.0509 0.54883-0.0566zm-7.8926 3.6504c1.7708 0.10416 3.2552 1.1458 4.4531 3.125 0.20833 0.72917 0.3125 1.5104 0.3125 2.3438-0.15624 0.9375-0.4427 1.5104-0.85937 1.7188-1.4583 0.57292-2.8125-0.20833-4.0625-2.3438-1.6146-2.7604-1.5625-4.375 0.15625-4.8438zm-7.8164 4.2012c0.17253-7e-3 0.35547-2e-3 0.55078 0.0176 1.25 0.26042 2.2136 0.93751 2.8906 2.0312 0.72916 1.0417 1.5625 2.0833 2.5 3.125 1.3021 1.25 1.6927 2.7083 1.1719 4.375-1.4062 1.6667-3.0208 1.4844-4.8438-0.54687-2.4479-2.3958-3.8542-4.6875-4.2188-6.875 0.0911-1.3672 0.74154-2.0757 1.9492-2.127z" fill="#f00" stroke-width=".47413"/>
   <rect x="3.5604e-6" y="3.5604e-6" width="135.47" height="135.47" fill="none"/>
  </g>
 </g>
</svg>
