<?xml version="1.0" encoding="UTF-8"?>
<!-- Created with Inkscape (http://www.inkscape.org/) -->
<svg width="512" height="512" version="1.1" viewBox="0 0 135.47 135.47" xmlns="http://www.w3.org/2000/svg" xmlns:cc="http://creativecommons.org/ns#" xmlns:dc="http://purl.org/dc/elements/1.1/" xmlns:rdf="http://www.w3.org/1999/02/22-rdf-syntax-ns#" xmlns:xlink="http://www.w3.org/1999/xlink">
 <defs>
  <linearGradient id="linearGradient880" x1="365.14" x2="473" y1="407.52" y2="515.38" gradientUnits="userSpaceOnUse">
   <stop stop-color="#008080" offset="0"/>
   <stop stop-color="#008080" stop-opacity="0" offset="1"/>
  </linearGradient>
  <filter id="filter1390" color-interpolation-filters="sRGB">
   <feFlood flood-color="rgb(0,0,0)" flood-opacity=".49804" result="flood"/>
   <feComposite in="flood" in2="SourceGraphic" operator="in" result="composite1"/>
   <feGaussianBlur in="composite1" result="blur" stdDeviation="2"/>
   <feOffset dx="3" dy="3" result="offset"/>
   <feComposite in="SourceGraphic" in2="offset" result="composite2"/>
  </filter>
  <filter id="filter1402" color-interpolation-filters="sRGB">
   <feFlood flood-color="rgb(0,0,0)" flood-opacity=".49804" result="flood"/>
   <feComposite in="flood" in2="SourceGraphic" operator="in" result="composite1"/>
   <feGaussianBlur in="composite1" result="blur" stdDeviation="2"/>
   <feOffset dx="3" dy="3" result="offset"/>
   <feComposite in="SourceGraphic" in2="offset" result="composite2"/>
  </filter>
 </defs>
 <metadata>
  <rdf:RDF>
   <cc:Work rdf:about="">
    <dc:format>image/svg+xml</dc:format>
    <dc:type rdf:resource="http://purl.org/dc/dcmitype/StillImage"/>
    <dc:title/>
   </cc:Work>
  </rdf:RDF>
 </metadata>
 <g transform="translate(0 -161.53)">
  <g transform="matrix(.9049 0 0 .9049 -19.78 108.61)">
   <g transform="matrix(.9249 0 0 .92875 6.9763 9.7768)">
    <rect x="25.273" y="61.947" width="142.88" height="142.88" fill="none"/>
    <g>
     <path d="m33.472 99.191q0.77515 10.852-6.7179 24.805-1.8087 2.9283-1.5503 3.359 0.25838 0 2.3254-1.2919 3.359-2.4116 7.5792-12.402 2.5838-8.6127 2.9283-11.972 0.08613-3.1006-0.86127-5.2538-1.5503-2.67-4.4786-3.9619-1.1197-0.51677-1.6364 0.0861-0.34451 0.51676 0.43064 1.6364 1.5503 1.8948 1.9809 4.9954zm39.188-32.298q-0.60289-0.0861-0.77514 0.0861-0.08613 0.25838 0.34451 0.51676 5.9428 3.1006 6.2012 4.3925 0 0.60289-0.86127 0.86128-0.25838 0.0861-0.51676 0.25838-0.51677 0.0861-0.34451 0.43063 0.08613 0.25839 0.51676 0.17226 2.3254-0.60289 5.7705 0.51676 1.6364 0.51677 2.1532-0.25838 0.51676-0.77514-1.0335-2.8422-2.67-3.7035-8.6989-3.7035-1.0335 0-2.7561-0.43064zm-13.608 20.24q-10.077 14.469-12.575 16.623-2.3254 0.77514-3.0145 2.8422-0.34451 1.0335 0.17225 1.8087 0.60289 1.1197 2.8422-0.51676 3.359-2.8422 7.3208-3.1867 1.8948 0 2.3254 1.8948 1.0335 6.2873-3.2728 12.488-2.8422 4.1341-8.0098 5.5983-2.0671 0.51677-3.1867 0.86127 2.4116 0.6029 6.3734-0.25838 4.3925-1.5503 6.3734-3.1006 4.6509-3.359 5.9428-8.785 0.86127-4.2202-0.68902-7.6653-1.1197-2.3254-3.7035-3.1867-1.6364-0.51676-3.1006-0.25838-1.378 0.34451-1.6364 0-0.34451-0.25838 0.9474-1.8087 3.7035-4.6509 8.096-9.3018 2.67 9.5601 10.852 22.135-1.6364 4.2202-3.7896 7.6653-0.77515 1.1197-0.43064 1.4642 0.25838 0.34451 1.378-0.77515 1.8948-2.0671 4.5648-5.7705 8.785 14.039 18.776 18.604 1.1197 0.51677 2.2393 0.51677 0.77515 0 1.1197-0.86128 0.51677-1.6364-1.5503-7.4931-1.2919-4.2202-1.8948-6.6318-0.25838-1.1196-0.68902-1.1196-0.34451 0.0861-0.08613 3.2728 0 6.2012-2.5838 4.4786-0.60289-0.34451-1.2058-0.86127-7.4931-5.9428-12.316-12.661 5.426-10.077 4.6509-14.211-0.51676-2.1532-3.1006-4.4786-1.8087-1.6364-2.4977-1.2058-0.60289 0.3445 0 1.5503 2.1532 2.5838-1.378 14.814-6.9763-10.938-9.7324-20.929 2.4116-2.67 5.3399-5.3399 2.1532-1.8948 0.68902-3.7896-0.86127-1.1197-2.9283-1.2919-1.8948-0.0861-4.8231 2.3254-1.0335-5.9428-0.68902-9.7324 0.60289-4.737-3.2728-7.5792-1.8948-1.378-3.1867-1.4642-1.2919-0.0861-1.4642 0.34451-0.25838 0.60289 0.86127 1.1196 1.378 0.60289 2.8422 8.8711 0.51676 6.2012 1.8948 10.163-4.2202 2.1532-9.3879 4.9093-4.6509 2.4116-9.3879 2.9283-1.6364 0.0861 1.7225 1.2058 3.359 1.0335 16.709-5.7705 0.51676-0.25839 1.0335-0.43064 0.08613 0.86127 0.51676 1.9809z" filter="url(#filter1390)"/>
     <path d="m129.36 188.08q1.0335 2.3254 1.1197 3.5312 0.51676 7.7515 3.5312 12.058 0.86128 1.2919 1.2919 1.2058 0.34451 0 0.68902-1.1197 0.25838-1.1196-0.17225-6.7179-0.34451-4.9954-1.5503-6.6318-1.378-1.8948-3.6174-3.2728-0.86127-0.6029-1.378-0.34452-0.34451 0.25839 0.0861 1.2919zm16.278-14.125q11.455-1.8948 19.379 0.51676 1.378 0.60289 2.5838-0.17226 1.0335-0.77514 0.43064-1.8948-2.1532-3.359-6.8902-3.359-7.7515 0.25839-9.0434 0.86128 4.3925-4.1341 6.6318-8.1821 0.86128-2.3254-1.2058-5.9428-1.8087-2.4116-4.9093-2.4977-2.9283 0-6.8041 1.6364 2.0671-7.2347 4.3925-10.421 2.0671-2.9283 0.25838-5.3399-1.0335-1.2919-2.2393-1.5503-1.2919-0.0861-2.2393 0.68902-2.9283 2.4116-10.249 5.5122-1.5503 0.60289-4.1341 0.86127-0.86127 0.0861-0.86127 0.43064 0.0861 0.34451 2.4977 1.2058 2.9283 0.86128 8.6127-1.4642 1.378-0.77515 1.8948-0.17226 0.25839 0.0861 0.0861 1.2058-1.1196 5.9428-2.4116 10.68-3.1006 1.0335-6.3734 2.4116-2.3254 0.86127-3.8757 1.0335-1.0335-0.0861-1.0335 0.51676 0 0.34451 1.1196 1.0335 2.8422 0.77515 6.2873-0.77515 1.0335-0.77514 3.1006-1.4642-0.34451 1.2919-0.68902 2.5838-2.5838 7.7515-3.4451 10.852-3.1867 0.51677-9.3018 2.8422-2.4116 1.1197-5.3399 1.2919-1.1197 0.0861-1.4642 0.60289-0.0861 0.60289 1.4642 1.0335 6.5457 1.2919 11.024-0.43064 5.9428-2.67 12.747-4.1341zm2.67-4.9954q-0.77515 0.86127-1.4642 1.6364-3.1867 0.0861-8.2682 1.6364 3.1006-5.426 6.2873-14.469 6.7179-2.5838 8.5266-2.3254 0.60289 0.0861 0.9474 0.60289 0.51677 0.51676 0.51677 0.9474 0 1.1196-0.9474 2.9283-2.9283 5.7705-5.5983 9.0434zm1.8948 13.091q-3.9619 1.1197-10.508 3.4451-1.8948 0.6029-3.1867 0.68902-1.0335-0.0861-1.1196 0.43064-0.0861 0.34451 1.0335 1.1197 2.8422 1.2919 5.9428 0 1.5503-1.0335 10.508-3.7896 2.0671-0.51676 2.4116 0.34451 0.51676 0.51676 0.51676 1.0335 0 1.0335-0.86127 2.8422-2.8422 5.6844-5.3399 8.785-1.0335 1.1196-2.0671 2.1532-0.51676 0.0861-0.86127 0.17226-3.6174 1.0335-7.407 2.067-1.1196 0-0.9474 0.6029 0.0861 0.51676 1.1197 1.1196 1.5503 0.77515 4.737 0.34451 3.1867-0.77514 8.096 0.60289 0.86127 0.34451 1.378 0.34451 1.1197 0 1.5503-0.68902 0.34451-0.60289 0.17225-1.5503-0.86127-2.0671-3.4451-2.7561 5.1676-4.1341 7.9237-8.6989 1.0335-2.4116-1.0335-6.3734-1.5503-2.5838-4.4786-2.8422-1.378-0.0861-4.1341 0.60289zm-39.446-41.427q-0.34451-0.34451-0.86128-0.86128-0.60289-0.60289-1.1196-0.25838-0.34451 0.34451 0 1.2058 0.51676 1.1197 2.4116 3.359 2.0671 2.0671 0.77515 4.048-0.60289 0.77514-0.9474 1.2919-0.34451 0.60289 0.0861 0.77514 0.34452 0.25839 1.1197-0.68901 0.34451-0.6029 1.8948-1.2919 2.1532-0.86127 2.9283-0.77514 1.8948 0.60289 2.5838-0.0861 0.60289-0.60289 0.34451-1.8087-0.25839-1.6364-2.0671-2.4977-1.1197-0.60289-3.5312-0.9474-2.4116-0.25838-3.6174-1.4642zm-17.225 29.025q-1.378-0.3445-1.378 0.68902 0.0861 0.86128 1.5503 2.2393 1.5503 1.2919 2.4977 1.378 1.1196 0.0861 9.7324-5.5983 2.4116-1.6364 3.0145-1.4642 0.77515 0.0861-0.0861 1.8948-8.0098 14.728-5.2538 21.446 0.77515 1.8087 2.5838 3.9619 1.8087 1.8948 2.9283 2.1532 0.86127 0.0861 2.4116-1.2919 1.6364-1.378 2.4977-3.2728 0.86127-2.4116 3.9619-8.1821 1.8948-3.6174 1.6364-3.8757t-1.2919 1.2058q-6.2012 7.7515-7.407 8.9572-1.6364 1.6364-2.2393 1.5503-0.77515-0.0861-1.4642-1.4642-1.8948-3.8757 0.86128-13.264 0.60289-2.67 1.8948-5.1676 3.6174-8.2682 7.9237-11.11 1.378-0.86127 1.378-1.5503-0.0861-0.60289-1.5503-1.1196-1.378-0.34452-2.067-0.25839-0.6029 0.0861-1.4642 1.2919-1.2919 1.378-16.536 10.249-2.5838 1.0335-4.1341 0.60289z" filter="url(#filter1402)"/>
     <path transform="scale(.26458)" d="m365.52 311.09v15.869a176.99 176.99 0 0 1 176.99 176.99h15.871a192.86 192.86 0 0 0-192.86-192.86z" fill="url(#linearGradient880)"/>
    </g>
    <g transform="translate(-1.8182 -3.946)">
     <rect x="27.091" y="154.12" width="47.092" height="29.104" fill="#008080"/>
     <g fill="#fff" aria-label="在线">
      <path d="m40.313 175.56q-1.5131 0.37207-3.2742 1.0666-0.66973 0.24805-1.141-0.19844-0.37207-0.47128-0.32246 0.0496 0.07441 0.47129 0.37207 0.81856 0.24805 0.32246 0.64492 0.44648 0.24805 0.14883 0.74414 0.0496 0.32246-0.0248 0.76894-0.34726 2.6789-1.4883 6.4244-1.0914 0.5209 0 1.4387 0.42168 0.5457 0.24805 0.91777 0.0992 0.32246-0.17363 0.32246-0.57051 0-0.37207-1.0666-1.141-0.89297-0.66973-5.8291 0.39687zm1.4635-3.7703q1.0666-0.29766 2.3564-0.74414 0.39688-0.14883 0.44648-0.29766 0.07441-0.17363 0-0.37207-0.37207-0.5209-1.3891-0.5457-0.47129-0.0248-1.0418 0.24804 0.24805-1.7859 0.04961-2.4557-0.17363-0.47129-0.79375-0.89297-0.5209-0.37207-1.1162-0.44648-0.5457-0.0248-0.71934 0.14883-0.17363 0.22324 0.24805 0.37207 0.66973 0.24804 0.81855 0.5457 0.39688 0.74414 0.04961 3.423-1.7859 0.66972-2.3564 0.64492-0.74414-0.0248-0.71934 0.14883 0.0248 0.14882 0.64492 0.39687 0.96738 0.22324 2.282 0.0992-0.02481 0.24805-0.04961 0.5457-0.14883 0.91778-0.22324 1.4139-0.17363 0.89297 0.12402 0.5209 0.89297-1.0418 1.3891-2.7533zm-4.4152-6.7717q4.1176-1.2898 6.4244-1.7363 0.47129-0.0744 0.47129-0.42168 0-0.5457-0.5457-0.84336-0.47129-0.32246-0.99219-0.79375-0.5457-0.47129-0.32246-0.0248 0.47129 0.69453 0.22324 0.96738-0.09922 0.0744-4.44 1.3891 1.1906-2.2324 2.158-3.423 0.47129-0.52089 0.44648-0.91777-0.02481-0.37207-0.37207-0.81855-0.5457-0.69453-0.74414-0.64493-0.17363 0.0248-0.27285 0.54571-0.14883 1.265-2.5301 5.6555-1.6371 0.47129-3.0262 0.96738-0.91777 0.32246-1.3643 0.24805-0.32246-0.0248-0.39688-0.22325-0.0248-0.17363 0.04961-0.5705 0.09922-0.59532-0.17363-0.12403-0.32246 0.47129-0.29766 1.0418 0.0248 0.47129 0.42168 0.84336 0.29766 0.29766 0.84336 0.37207 0.5209 0.0248 1.2402-0.34727 0.89297-0.37207 1.8355-0.71933-3.8199 6.2508-5.5811 8.6816-0.5209 0.69453-0.74414 0.59531-0.02481-0.0744-0.04961-1.1658 0.02481-0.24805-0.07441-0.29766-0.09922-0.0248-0.29766 0.64493-0.62012 2.1828-0.34727 2.6045 0.17363 0.17363 0.59531 0.0496 1.1906-0.47129 2.5053-2.7285 0.81856-1.4387 1.7115-2.8277 0.14883 3.2246-0.49609 5.9531-0.29766 1.0666 0.62012 2.3068 0 0 0.04961 0.0496 0.22324 0.29765 0.47129 0.29765 0.24805-0.0248 0.29766-0.42168 0.02481-0.39687 0.02481-0.81855-0.07441-1.6619-0.07441-2.4557 0.0248-0.84336 0-2.3316-0.02481-1.4387 0.04961-2.4309 0.02481-0.47129-0.32246-1.1162 0-0.0248 0.02481-0.0248 1.7859-2.9022 3.0014-4.9857z"/>
      <path d="m66.036 169.83q0.47129 1.9348 1.1162 3.4726-2.6789 2.5301-4.5641 3.3982-0.29766 0.0992-0.24805 0.24804 0.0248 0.0992 0.19844 0.0992 2.6789-0.5209 5.085-2.6789 1.4139 2.7533 3.175 4.0432 0.74414 0.5457 1.141 0.5457 0.17363 0 0.39688-0.19844 0.22324-0.24804 0.0248-0.89296-0.17363-0.66973-0.27285-1.5379-0.09922-0.89297-0.29766-1.8852-0.09922-0.47129-0.19844 0.0992-0.02481 0.91777-0.27285 1.7115-0.09922 0.37207-0.32246 0.39688-0.5209 0-1.5875-1.5379-0.5457-0.69454-0.99219-1.5131 1.7115-1.7363 1.8107-2.8277 0.02481-0.81856-0.44648-1.5131-0.17363-0.24805-0.39688-0.19844-0.17363 0.0248-0.12402 0.42168 0.09922 1.1906-1.3643 3.0262-0.96738-2.3812-1.1906-3.7455 2.158-1.6371 2.8029-2.282 0.81856-0.76894 0.79375-0.86816-0.0248-0.0744-0.34726 0.12402-1.5131 1.0666-3.3982 2.282-0.14883-0.76895-0.24805-1.6867 3.0758-3.3486 3.1502-3.3982 0.29766-0.24804 0.14883-0.47128-0.14883-0.17364-0.64492-0.24805-0.59531-0.0992-2.9766 1.3891-0.07441-1.3394 0.17363-2.927 0.09922-0.81856-0.5209-1.3891-0.32246-0.29766-0.71934-0.42168-0.44648-0.17364-0.66973-0.0992-0.22324 0.0992 0.04961 0.32246 0.5209 0.5209 0.57051 2.7533 0 0.29765 0.19844 2.282-2.2324 1.1906-2.9518 1.3891-0.37207 0.0992-0.32246 0.19844 0.0248 0.14883 0.71934 0.19844 1.265 0.0248 2.6789-0.79375 0.07441 0.62011 0.17363 1.265-3.0758 3.051-3.4727 3.3238-0.24805 0.0992-0.29766 0.47129-0.02481 0.24805 0.27285 0.64492 0.32246 0.39688 0.89297 0.32247 0.02481 0 3.1502-1.8108 0.0248 0.24805 0.12402 0.4961zm-0.29766-1.3146q-0.24805 0.0992-0.49609 0.29766-0.99219 0.59531-1.3891 0.74414-0.29766 0.0992-0.37207 0-0.09922-0.14883 0.42168-0.71934 0.84336-0.91777 1.5875-1.6371 0.09922 0.69453 0.24805 1.3146zm0.34726-3.9688q0.32246-0.17363 0.59531-0.27285 0.22324-0.0992 0.29766 0 0.09922 0.14883-0.14883 0.49609-0.29766 0.32246-0.64492 0.71934-0.07441-0.47129-0.09922-0.94258zm2.927-5.085q-0.17363-0.0248-0.24805 0.0496-0.02481 0.0992 0.19844 0.24804 0.81856 0.66973 1.2402 1.2154 0.5457 0.89297 1.1658 1.017 0.24805 0.0248 0.37207-0.0496 0.17363-0.0992 0.12402-0.4961-0.07441-0.81855-0.76895-1.3146-0.5209-0.39687-2.0836-0.66972zm-11.509 5.2834q1.0418-1.3643 1.4387-1.8356 0.66973-0.81856 0.64492-1.2402-0.22324-0.81856-0.96738-1.5627-0.17363-0.22324-0.37207-0.17363-0.14883 0.0248-0.09922 0.32246 0.29766 2.4557-3.3734 6.8709-0.66973 0.62011-0.12402 1.3642 0.17363 0.24805 0.42168 0.27286 0.37207 0 2.6541-1.4139 1.1162-0.66973 1.2154-0.5209 0.07441 0.14883-0.19844 0.49609-2.8277 3.7207-3.6959 3.8943-0.47129 0.14883-0.39688 0.84336 0.07441 0.22324 0.22324 0.32246 0.14883 0.0992 0.44648-0.12402 1.6619-1.141 3.4479-1.5379 0.32246-0.14883 0.42168-0.0248 0.07442 0.14883-0.0248 0.32246-1.265 1.9348-2.1828 2.7037-0.17363 0.14883-0.12402 0.22325 0.07441 0.0992 0.29766 0 1.2898-0.69454 3.0758-2.7533 0.37207-0.66973 0.42168-0.79375 0.0248-0.17364-0.19844-0.39688-0.17363-0.17363-0.39688-0.22324-0.32246-0.0248-0.59531 0.0496-0.76894 0.37207-2.034 0.5209-0.17363 0-0.19844-0.0992-0.02481-0.0744 0.24805-0.29766 0.62012-0.59531 1.4139-1.3891 1.8604-1.9596 1.91-2.0836 0.02481-0.24804-0.24805-0.59531-0.24805-0.24804-0.57051-0.34726-0.37207-0.0744-1.0666 0.47129-0.07441 0.0744-2.1828 0.99218-0.47129 0.24805-0.59531 0.0744-0.17363-0.22325 0.14883-0.66973 0.32246-0.47129 1.2154-1.6619zm-2.8773 11.906q-0.62012-0.0992-0.69453 0.0744-0.07441 0.22324 0.24805 0.37207 1.3395 0.62012 2.2324 0.44649 0.81856-0.22325 4.1672-3.423 0.17363-0.17363 0.12402-0.27285-0.07441-0.0744-0.84336 0.42168-4.316 2.3812-5.2338 2.3812z"/>
     </g>
    </g>
   </g>
  </g>
 </g>
</svg>
